<?xml version="1.0" encoding="UTF-8"?>
<svg version="1.1" xmlns="http://www.w3.org/2000/svg" width="300" height="200">
<path d="M0 0 C1.85258024 -0.00542994 3.70515615 -0.01255747 5.557724 -0.02124023 C10.55783586 -0.03937405 15.55761516 -0.03244701 20.55773234 -0.01972389 C25.81002699 -0.00954293 31.0622946 -0.01900379 36.31459045 -0.02526855 C45.13328115 -0.03253082 53.95183754 -0.02299528 62.77050781 -0.00390625 C72.93961165 0.01785294 83.10839451 0.01081223 93.27749056 -0.01121187 C102.03542814 -0.02941451 110.79326959 -0.03190027 119.55122 -0.0214572 C124.77008509 -0.01524808 129.98879976 -0.01431499 135.20765495 -0.02760315 C140.11706612 -0.0392318 145.02606708 -0.03100881 149.93543434 -0.00802612 C151.72797848 -0.00277599 153.52055767 -0.00418873 155.31308746 -0.01307678 C169.6051816 -0.0773617 181.74669772 1.47298718 193.40258789 10.51757812 C194.43383789 11.26007812 195.46508789 12.00257812 196.52758789 12.76757812 C205.52884176 21.37747313 211.85362157 33.37517754 212.60571289 45.90039062 C212.80475417 61.79051969 208.87407648 74.55514481 197.79321289 86.25976562 C184.17054229 99.12562119 168.57668805 100.82093885 150.68066406 100.79223633 C148.88601978 100.79658861 147.09137736 100.80177348 145.29673767 100.807724 C140.44122676 100.82107066 135.58579391 100.82169743 130.73026824 100.8191607 C126.66742975 100.81808789 122.60460685 100.82298234 118.54177171 100.82776612 C108.95101293 100.83884665 99.36029333 100.83930711 89.76953125 100.83325195 C79.89760753 100.82721479 70.02582642 100.83952001 60.15392703 100.86082202 C51.65850234 100.87847523 43.1631229 100.88443346 34.66768056 100.88118428 C29.6025179 100.87937697 24.53745696 100.8819521 19.47231102 100.89589882 C14.70583431 100.90853294 9.9395788 100.90648053 5.17310524 100.89348793 C3.43173775 100.8911346 1.69035443 100.89381183 -0.05099487 100.90211105 C-17.53754225 100.97939005 -32.31877909 98.20764694 -45.53100586 85.77539062 C-54.67465398 75.78478833 -60.05500093 62.76511793 -59.80444336 49.18945312 C-58.69716196 34.89925549 -53.6095904 22.25790641 -42.97241211 12.44726562 C-29.77610074 1.72526264 -16.38600283 -0.08114754 0 0 Z " fill="#F2DA33" transform="translate(73.597412109375,49.482421875)"/>
<path d="M0 0 C6.60790292 4.82588829 10.09631767 9.45833426 11.6796875 17.48828125 C12.24350449 24.16011567 9.4251327 29.22942515 5.2421875 34.26953125 C-2.1984722 40.68575229 -9.88581601 43.47198797 -19.5078125 44.01953125 C-26.87175373 44.60303765 -31.78282941 46.26684342 -37.7890625 50.80859375 C-39.7578125 52.26953125 -39.7578125 52.26953125 -41.7578125 52.26953125 C-41.0978125 47.97953125 -40.4378125 43.68953125 -39.7578125 39.26953125 C-41.0778125 38.60953125 -42.3978125 37.94953125 -43.7578125 37.26953125 C-49.09939674 33.66396189 -51.72636105 29.3638856 -53.7578125 23.26953125 C-54.73225517 16.43609787 -53.74812312 11.843861 -49.6015625 6.30859375 C-36.77318296 -7.8787243 -16.04457665 -10.06763096 0 0 Z " fill="#242423" transform="translate(103.7578125,75.73046875)"/>
<path d="M0 0 C4.09660765 1.75568899 6.08575146 3.56541726 7.875 7.5625 C9.91637918 14.12669534 10.2091752 21.11427 7.3125 27.4375 C5.02347568 31.41274509 2.10501204 33.94749398 -2 36 C-5.67015275 36.1377685 -9.32611348 36.04271961 -13 36 C-13 40.29 -13 44.58 -13 49 C-16.3 49 -19.6 49 -23 49 C-23 33.16 -23 17.32 -23 1 C-16 1 -16 1 -14 2 C-9.51860961 -0.98759359 -5.25156457 -0.5860115 0 0 Z " fill="#2C2B23" transform="translate(161,80)"/>
<path d="M0 0 C3.05985177 1.90207002 4.70354322 3.92852599 5.96484375 7.23828125 C6.19189453 10.26269531 6.19189453 10.26269531 6.16015625 13.75390625 C6.15371094 15.00429687 6.14726562 16.2546875 6.140625 17.54296875 C6.12386719 18.84492187 6.10710937 20.146875 6.08984375 21.48828125 C6.08082031 22.80570313 6.07179687 24.123125 6.0625 25.48046875 C6.03892908 28.73325587 6.00602397 31.98567714 5.96484375 35.23828125 C0.28515625 35.31640625 0.28515625 35.31640625 -2.59765625 34.61328125 C-5.06514986 34.00894676 -5.06514986 34.00894676 -7.28515625 35.23828125 C-11.3497827 36.71632723 -14.91520487 36.5296093 -19.03515625 35.23828125 C-22.29755535 32.05545286 -23.31751309 29.17985074 -23.72265625 24.73828125 C-23.52512062 21.19461171 -22.78031247 19.27614186 -20.28515625 16.73828125 C-15.45756682 13.13500832 -9.85944256 13.25740863 -4.03515625 13.23828125 C-4.41419833 9.94752129 -4.41419833 9.94752129 -6.03515625 7.23828125 C-8.22565646 7.32846121 -10.41362225 7.48494333 -12.59765625 7.67578125 C-13.79519531 7.77761719 -14.99273437 7.87945312 -16.2265625 7.984375 C-17.15339844 8.06816406 -18.08023438 8.15195313 -19.03515625 8.23828125 C-19.69515625 6.25828125 -20.35515625 4.27828125 -21.03515625 2.23828125 C-14.65953831 -1.23932853 -7.00054485 -2.62016554 0 0 Z " fill="#292823" transform="translate(199.03515625,80.76171875)"/>
<path d="M0 0 C0.96023825 2.85353821 1.91824013 5.70779555 2.875 8.5625 C3.14441406 9.36236328 3.41382813 10.16222656 3.69140625 10.98632812 C5.24570557 15.63027123 6.69483177 20.27985276 8 25 C10.63781296 18.19792394 12.75036458 11.44813608 14.38671875 4.3359375 C15 2 15 2 16 1 C22.52542373 0.76271186 22.52542373 0.76271186 25 2 C22.46761124 17.8033881 14.85009564 41.82700762 2 52 C0.02 50.68 -1.96 49.36 -4 48 C-2.81047772 45.42270173 -1.57385905 43.45210449 0.1875 41.1875 C2.49512759 37.12925838 1.91833219 35.50922751 1 31 C0.30121063 28.78256353 -0.46311757 26.58491681 -1.28515625 24.41015625 C-1.73310547 23.21455078 -2.18105469 22.01894531 -2.64257812 20.78710938 C-3.11115234 19.55798828 -3.57972656 18.32886719 -4.0625 17.0625 C-4.54036495 15.79386497 -5.01758441 14.5249866 -5.49414062 13.25585938 C-6.65644411 10.16812385 -7.82523229 7.08301014 -9 4 C-6.43425105 1.43425105 -3.68548192 0 0 0 Z " fill="#2A2923" transform="translate(219,79)"/>
<path d="M0 0 C2.40954441 2.2985055 2.96386169 3.7450784 3.43359375 7.05859375 C3.43488281 8.17363281 3.43617188 9.28867188 3.4375 10.4375 C3.45683594 11.54996094 3.47617188 12.66242188 3.49609375 13.80859375 C2.87827211 17.78308411 2.07928708 19.39744299 -1 22 C-3.64 22 -6.28 22 -9 22 C-9 15.07 -9 8.14 -9 1 C-5.9167365 -0.54163175 -3.39121901 -0.29747535 0 0 Z " fill="#EED633" transform="translate(157,87)"/>
<path d="M0 0 C0 2.31 0 4.62 0 7 C-3.39464446 9.08901197 -6.04841529 9.34361606 -10 9 C-10.66 8.34 -11.32 7.68 -12 7 C-11.82789342 4.33234797 -11.19577941 3.21083937 -9.375 1.25 C-6.16865877 -0.43754802 -3.56651486 -0.20576047 0 0 Z " fill="#E7D133" transform="translate(196,100)"/>
</svg>
