<?xml version="1.0" encoding="UTF-8"?>
<svg version="1.1" xmlns="http://www.w3.org/2000/svg" width="200" height="200">
<path d="M0 0 C3.66117986 3.08998074 7.07576454 6.3919885 10.46484375 9.77636719 C11.68880859 10.98292969 11.68880859 10.98292969 12.9375 12.21386719 C22.19821064 21.87169235 31.51112604 36.65533747 32.68359375 50.32714844 C32.46283497 53.34602469 31.76612965 55.39072124 29.90234375 57.77636719 C26.46986659 59.18456295 23.09938445 59.67790365 19.46484375 58.77636719 C15.40682728 55.73476539 14.18099611 51.8625634 12.65234375 47.21386719 C6.09909733 28.67292367 -6.47716107 15.35075258 -24.16015625 6.90136719 C-42.40810016 -0.80154946 -61.33210899 -1.29828809 -79.84765625 6.08886719 C-98.34579766 14.43407958 -110.59582118 27.07428609 -118.53515625 45.77636719 C-124.82355017 64.5436751 -124.03616005 83.85172283 -115.9765625 101.96777344 C-113.60014879 106.59823809 -110.74508998 110.68977089 -107.53515625 114.77636719 C-106.9628125 115.53691406 -106.39046875 116.29746094 -105.80078125 117.08105469 C-93.33565357 132.47602007 -74.09868793 138.85404952 -55.078125 141.06152344 C-36.46111758 141.88024461 -17.36936195 133.48824495 -3.70703125 121.24121094 C5.49813116 111.65485315 11.34362305 100.91309098 14.83129883 88.19360352 C16.09108756 83.61048862 17.37848888 79.35911916 21.27734375 76.40136719 C24.41715039 75.50427958 26.35319596 75.80397725 29.46484375 76.77636719 C32.47071594 79.46583177 33.4029748 80.93185597 33.69921875 84.97558594 C33.44851274 89.0412017 32.60000435 92.62030674 31.33984375 96.46386719 C31.11321045 97.16229736 30.88657715 97.86072754 30.65307617 98.58032227 C23.12723406 121.01919439 7.39560327 138.88203847 -13.53515625 149.77636719 C-34.83135613 159.97288506 -58.51670134 161.74875503 -81.04296875 154.67480469 C-103.21534817 146.55017393 -121.94791313 131.25301547 -132.44921875 109.91943359 C-142.10406061 89.0604087 -144.28564755 64.61451619 -136.53515625 42.77636719 C-127.87459944 19.39729376 -111.72878703 0.67030381 -88.92578125 -9.95800781 C-60.48735893 -22.45007465 -24.74554349 -19.72402417 0 0 Z " fill="#15D7C0" transform="translate(153.53515625,29.2236328125)"/>
<path d="M0 0 C3.00342896 2.05497771 3.83287356 3.47633714 4.9375 6.9375 C5.03323693 11.62860958 2.82196069 14.09576362 -0.26831055 17.49536133 C-1.13238525 18.3489624 -1.99645996 19.20256348 -2.88671875 20.08203125 C-3.34859085 20.54107346 -3.81046295 21.00011566 -4.28633118 21.47306824 C-5.74872138 22.92434914 -7.21794126 24.36848204 -8.6875 25.8125 C-9.68600823 26.80096646 -10.68405989 27.78989437 -11.68164062 28.77929688 C-14.11664308 31.19077274 -16.5561959 33.59744957 -19 36 C-18.00521133 36.00879936 -18.00521133 36.00879936 -16.99032593 36.01777649 C-10.07937152 36.08177708 -3.1688799 36.16621457 3.74169922 36.26245117 C6.3197621 36.29567781 8.89789733 36.32371673 11.47607422 36.34643555 C15.18488354 36.38002207 18.8930312 36.43234244 22.6015625 36.48828125 C23.75177887 36.49467117 24.90199524 36.5010611 26.08706665 36.50764465 C36.41966672 36.69690281 36.41966672 36.69690281 41 40 C42.89941823 44.02676664 43.29187839 46.03315285 42 50.3125 C39.42533071 53.77221186 38.2041824 54.00809071 34 55 C29.9416305 55.32501824 25.89027337 55.37239699 21.8203125 55.4140625 C20.06846146 55.44311172 20.06846146 55.44311172 18.28121948 55.4727478 C14.56255322 55.53237661 10.84385572 55.57886274 7.125 55.625 C4.59894507 55.66319509 2.07290295 55.70224771 -0.453125 55.7421875 C-6.63530269 55.83806453 -12.81755796 55.92316085 -19 56 C-18.30849854 56.66531738 -17.61699707 57.33063477 -16.90454102 58.01611328 C-14.33304096 60.49685318 -11.77833787 62.9943185 -9.22827148 65.49707031 C-8.12403301 66.5762235 -7.01534068 67.65083934 -5.90209961 68.72070312 C-4.29898719 70.26290157 -2.71280917 71.82092063 -1.12890625 73.3828125 C-0.63097061 73.85494171 -0.13303497 74.32707092 0.37998962 74.81350708 C3.61175256 78.04261909 4.83560459 80.42307333 5 85 C3.39588152 88.52906067 2.25840638 89.82772908 -1 92 C-4.08642578 92.68115234 -4.08642578 92.68115234 -8 92 C-11.58599719 89.41385723 -14.55682071 86.27966749 -17.6171875 83.1015625 C-18.51494904 82.19626801 -19.41271057 81.29097351 -20.337677 80.35824585 C-22.71440336 77.95450389 -25.07453796 75.53652794 -27.42840576 73.11053467 C-29.35642785 71.13061274 -31.2993788 69.16572239 -33.24334526 67.20147133 C-37.25590099 63.14665108 -41.25663541 59.08018026 -45.23388672 54.99072266 C-45.93891327 54.26680328 -46.64393982 53.54288391 -47.37033081 52.79702759 C-49.36820071 50.59398702 -49.94141486 49.30757197 -50.5 46.375 C-49.95386106 42.68856217 -49.38772298 41.96271817 -46.97192383 39.30053711 C-46.33421051 38.59742401 -45.69649719 37.89431091 -45.03945923 37.16989136 C-41.7369486 33.65617107 -38.36377159 30.22110341 -34.94921875 26.81640625 C-34.2092012 26.07543198 -33.46918365 25.3344577 -32.70674133 24.57102966 C-31.1575284 23.02114141 -29.60707273 21.47249442 -28.05541992 19.92504883 C-25.67314495 17.54817751 -23.29631503 15.16595354 -20.91992188 12.78320312 C-19.4091751 11.27311635 -17.89811859 9.76333938 -16.38671875 8.25390625 C-15.67529221 7.54045547 -14.96386566 6.8270047 -14.23088074 6.0919342 C-13.57292007 5.4371257 -12.91495941 4.7823172 -12.23706055 4.10766602 C-11.65860886 3.53000992 -11.08015717 2.95235382 -10.48417664 2.35719299 C-7.23615845 -0.61293025 -4.26533335 -0.36770115 0 0 Z " fill="#14D7C0" transform="translate(107,54)"/>
</svg>
