<?xml version="1.0" encoding="UTF-8"?>
<svg version="1.1" xmlns="http://www.w3.org/2000/svg" width="512" height="512">
<path d="M0 0 C1.70847108 -0.00807831 1.70847108 -0.00807831 3.45145673 -0.01631981 C7.23493701 -0.03052797 11.01806389 -0.02351315 14.80155945 -0.01637268 C17.52773435 -0.02043977 20.25389167 -0.02894604 22.98005676 -0.03717041 C29.59691486 -0.05430116 36.21367776 -0.05521029 42.83055226 -0.04995751 C48.21344218 -0.04590347 53.59630413 -0.04737395 58.97919273 -0.05270576 C60.13174633 -0.0538284 60.13174633 -0.0538284 61.30758383 -0.05497371 C62.86892246 -0.05650531 64.43026109 -0.05804366 65.9915997 -0.05958868 C80.60937299 -0.07329328 95.22709265 -0.06789065 109.84486469 -0.05640347 C123.19063208 -0.04647559 136.53626074 -0.05940766 149.88200674 -0.08333766 C163.61551418 -0.10777565 177.34895713 -0.11732486 191.08248585 -0.11068493 C198.7807428 -0.10720283 206.47889316 -0.10935764 214.17713356 -0.12693596 C220.73114177 -0.141717 227.28496833 -0.14221699 233.8389732 -0.12486505 C237.17671688 -0.1164002 240.51387315 -0.11629373 243.8516407 -0.1295166 C266.42960921 -0.21209482 285.5986213 1.76346257 302.88114929 17.91722107 C311.75940795 26.750768 319.4853966 39.94984596 320.19476491 52.70335573 C320.19655348 53.56359002 320.19834205 54.42382431 320.20018482 55.3101263 C320.20464267 56.30632455 320.20910051 57.30252279 320.21369344 58.32890886 C320.2134169 59.9673473 320.2134169 59.9673473 320.21313477 61.6388855 C320.21681145 62.80102682 320.22048814 63.96316814 320.22427624 65.16052586 C320.23339432 68.38724698 320.23801088 71.6139382 320.24066556 74.84066999 C320.24457275 78.32077979 320.25415097 81.80087492 320.26287842 85.28097534 C320.28263372 93.6873019 320.29270901 102.09362965 320.30160621 110.49997362 C320.30599167 114.46166394 320.3113579 118.42335293 320.31659508 122.38504219 C320.33360835 135.56067725 320.34810069 148.73631148 320.35534382 161.91195583 C320.35725363 165.33054035 320.35917397 168.74912486 320.36112976 172.16770935 C320.3616135 173.01735313 320.36209724 173.86699692 320.36259564 174.74238748 C320.37088905 188.49416087 320.39621386 202.24584708 320.42871044 215.99758243 C320.46182472 230.12631862 320.47979662 244.25501059 320.48298806 258.38378578 C320.48514939 266.31238431 320.49384238 274.24085581 320.51944923 282.16941643 C320.54121622 288.92457829 320.54917741 295.67958227 320.53948245 302.43477523 C320.53495466 305.87746501 320.53673406 309.31982945 320.5562439 312.76247406 C320.57400217 316.50646131 320.56683601 320.2496331 320.55371094 323.99362183 C320.57016481 325.60194552 320.57016481 325.60194552 320.58695108 327.2427606 C320.45027227 343.48431118 313.49322787 357.4724088 302.44487 369.13768005 C289.3453008 381.52742038 272.92605336 386.87815198 255.13192749 386.77536011 C253.42345641 386.78343841 253.42345641 386.78343841 251.68047076 386.79167992 C247.89699048 386.80588807 244.1138636 386.79887326 240.33036804 386.79173279 C237.60419314 386.79579988 234.87803582 386.80430615 232.15187073 386.81253052 C225.53501263 386.82966127 218.91824973 386.8305704 212.30137523 386.82531761 C206.91848531 386.82126358 201.53562336 386.82273406 196.15273476 386.82806587 C195.00018116 386.82918851 195.00018116 386.82918851 193.82434366 386.83033382 C192.26300503 386.83186542 190.7016664 386.83340377 189.14032779 386.83494879 C174.5225545 386.84865339 159.90483484 386.84325075 145.2870628 386.83176357 C131.94129541 386.82183569 118.59566675 386.83476777 105.24992075 386.85869776 C91.51641331 386.88313576 77.78297036 386.89268497 64.04944164 386.88604504 C56.35118469 386.88256293 48.65303433 386.88471775 40.95479393 386.90229607 C34.40078572 386.91707711 27.84695916 386.9175771 21.29295429 386.90022516 C17.95521061 386.89176031 14.61805434 386.89165384 11.28028679 386.90487671 C-11.29768172 386.98745493 -30.46669381 385.01189754 -47.7492218 368.85813904 C-56.62748046 360.02459211 -64.35346911 346.82551414 -65.06283742 334.07200438 C-65.06462599 333.21177009 -65.06641456 332.3515358 -65.06825733 331.4652338 C-65.07271518 330.46903556 -65.07717302 329.47283732 -65.08176595 328.44645125 C-65.08158159 327.35415896 -65.08139722 326.26186667 -65.08120728 325.13647461 C-65.08488396 323.97433329 -65.08856065 322.81219197 -65.09234875 321.61483425 C-65.10146683 318.38811313 -65.10608339 315.1614219 -65.10873806 311.93469012 C-65.11264526 308.45458032 -65.12222348 304.97448519 -65.13095093 301.49438477 C-65.15070623 293.0880582 -65.16078152 284.68173045 -65.16967872 276.27538648 C-65.17406418 272.31369617 -65.17943041 268.35200718 -65.18466759 264.39031792 C-65.20168086 251.21468286 -65.2161732 238.03904863 -65.22341633 224.86340427 C-65.22532614 221.44481976 -65.22724648 218.02623525 -65.22920227 214.60765076 C-65.22992788 213.33318508 -65.22992788 213.33318508 -65.23066815 212.03297263 C-65.23896156 198.28119924 -65.26428637 184.52951303 -65.29678295 170.77777768 C-65.32989723 156.64904148 -65.34786913 142.52034952 -65.35106057 128.39157432 C-65.3532219 120.46297579 -65.36191489 112.5345043 -65.38752174 104.60594368 C-65.40928873 97.85078181 -65.41724992 91.09577784 -65.40755496 84.34058488 C-65.40302717 80.8978951 -65.40480657 77.45553066 -65.42431641 74.01288605 C-65.44207468 70.2688988 -65.43490851 66.52572701 -65.42178345 62.78173828 C-65.43275269 61.70952249 -65.44372194 60.63730669 -65.45502359 59.53259951 C-65.31834478 43.29104893 -58.36130038 29.30295131 -47.3129425 17.63768005 C-34.21337331 5.24793973 -17.79412587 -0.10279188 0 0 Z " fill="#2EC101" transform="translate(128.9340362548828,62.61231994628906)"/>
<path d="M0 0 C0.75345703 0.24669434 1.50691406 0.49338867 2.28320312 0.74755859 C28.40575389 9.33384495 53.68683597 24.69141976 68 49 C68.35400879 49.59087402 68.70801758 50.18174805 69.07275391 50.79052734 C77.29431097 64.69518837 83.45176739 79.54663624 82 96 C80.82566406 96.09796875 79.65132812 96.1959375 78.44140625 96.296875 C50.20662998 98.83815261 25.41618505 106.82132682 4 126 C3.35675781 126.57234375 2.71351563 127.1446875 2.05078125 127.734375 C-9.65969744 138.78696163 -18.28975625 154.3458209 -22 170 C-22.3403125 171.1034375 -22.680625 172.206875 -23.03125 173.34375 C-24.63635302 179.76416208 -24.47032442 186.41984309 -24.625 193 C-24.66325652 194.36069998 -24.70231248 195.72137774 -24.7421875 197.08203125 C-24.83597068 200.3878882 -24.92167389 203.69374674 -25 207 C-25.825 206.90912109 -26.65 206.81824219 -27.5 206.72460938 C-35.45195924 205.85930131 -43.40668178 205.06309314 -51.37255859 204.33837891 C-53.48906476 204.14094469 -55.60470296 203.93252102 -57.71728516 203.69677734 C-69.35972649 202.40994112 -76.23471935 206.04193636 -85.55615234 212.35546875 C-89.30327772 214.87701086 -93.11909672 217.2886078 -96.93115234 219.71044922 C-98.91510716 220.97390331 -100.89345835 222.24620555 -102.86572266 223.52783203 C-103.76468262 224.10903809 -104.66364258 224.69024414 -105.58984375 225.2890625 C-106.39284912 225.81193848 -107.19585449 226.33481445 -108.02319336 226.87353516 C-110 228 -110 228 -112 228 C-110.69404929 218.93631227 -108.75110506 210.03407716 -106.76489258 201.09936523 C-106.34726684 199.21553583 -105.93644813 197.33017949 -105.53369141 195.44311523 C-105.1019743 193.46681463 -104.61588074 191.50244253 -104.11328125 189.54296875 C-103.73015237 186.92452861 -103.73015237 186.92452861 -105.484375 184.98046875 C-106.60585937 184.09294922 -106.60585937 184.09294922 -107.75 183.1875 C-108.99910156 182.16269531 -108.99910156 182.16269531 -110.2734375 181.1171875 C-112.06805932 179.72365595 -113.86488049 178.33295141 -115.6640625 176.9453125 C-135.12490775 161.63461868 -148.8085945 139.21377642 -152.61328125 114.58984375 C-155.48898107 87.89521612 -148.48704754 60.36171137 -131.625 39.1875 C-130.10609725 37.43830364 -128.56445131 35.70857999 -127 34 C-126.24074219 33.15953125 -125.48148438 32.3190625 -124.69921875 31.453125 C-94.98814121 0.13735751 -41.07786309 -14.3609675 0 0 Z " fill="#FEFEFC" transform="translate(242,116)"/>
<path d="M0 0 C1.24652344 0.35191406 2.49304688 0.70382813 3.77734375 1.06640625 C16.22823335 4.79488834 27.09723756 10.61200046 37 19 C37.66386719 19.51949219 38.32773437 20.03898437 39.01171875 20.57421875 C53.64147081 32.44472484 64.25277794 52.52307848 66.23486328 71.21484375 C67.65799123 90.02074625 62.59450544 109.67910356 50.3203125 124.31640625 C45.71165355 129.53104526 40.70688082 134.40047515 35.65625 139.18359375 C31.25130867 144.01448459 30.58897062 147.89892616 30.8125 154.3125 C30.82603516 155.05306641 30.83957031 155.79363281 30.85351562 156.55664062 C30.88864021 158.37141075 30.94244028 160.18580288 31 162 C30.1028125 161.566875 29.205625 161.13375 28.28125 160.6875 C16.19134904 155.16303 5.69587595 154.14680701 -7.125 158 C-29.39264183 164.57417399 -54.33733162 160.86521776 -74.44140625 150.00390625 C-96.06002059 137.95706509 -112.14968803 119.51133474 -118.97265625 95.58984375 C-123.59696748 76.51187136 -120.75867098 57.6865655 -110.80078125 40.77734375 C-96.640059 18.93727104 -75.46664461 3.94018624 -50 -2 C-33.87430612 -4.62229399 -15.72022837 -4.53573217 0 0 Z " fill="#FDFEFC" transform="translate(350,227)"/>
<path d="M0 0 C5.48793049 2.43726272 9.37651709 5.53641632 12 11 C12.80189609 16.30262818 12.92183648 22.04000845 10.5 26.9375 C6.73550146 31.54901071 3.24181114 34.47579224 -2.75390625 35.4453125 C-8.66062118 35.68640291 -12.47906841 35.09036668 -17 31 C-22.10614602 25.54602387 -23.36435921 22.16379492 -23.27734375 14.7578125 C-22.74253304 9.43983556 -19.73074402 6.52347461 -15.875 3.1875 C-10.76169095 -0.70306124 -6.31584659 -0.88205499 0 0 Z " fill="#2FC104" transform="translate(172,178)"/>
<path d="M0 0 C4.42168533 1.9637291 7.76164262 4.68659066 11.0625 8.1875 C13.045879 14.13763699 12.97608452 20.57545981 10.5 26.375 C7.9485704 30.69553932 4.70838665 33.28643023 0 35 C-5.5597163 35.98731498 -10.43249544 35.74017009 -15.4375 33 C-19.44863123 30.05960195 -21.66848921 26.78511691 -23 22 C-23.74332787 16.99027986 -23.62202111 13.26796612 -21.375 8.6875 C-14.98360025 1.4551266 -9.77749064 -1.36549935 0 0 Z " fill="#2FC103" transform="translate(259,178)"/>
<path d="M0 0 C5.35755096 1.92063148 8.45837216 4.91674432 11 10 C11.52038648 15.65419928 11.75782276 20.4369295 8 25 C5.03909109 28.33102252 3.06346913 29.70664736 -1.41796875 30.34375 C-6.97565459 30.65730068 -10.30565378 30.39760752 -14.625 26.6875 C-18.2772987 23.13209902 -19.16536478 20.22881742 -19.3125 15.1875 C-19.24885569 10.32931778 -18.33607275 7.6872383 -15 4 C-10.21212087 -0.231149 -6.14411195 -0.90451917 0 0 Z " fill="#2EC103" transform="translate(283,265)"/>
<path d="M0 0 C4.11431714 1.4241867 7.37911044 3.50591446 10.08203125 6.99609375 C12.11550281 11.43511889 11.69409704 16.27105848 11 21 C9.26141451 24.81151433 7.78176637 26.42797583 4.4375 28.875 C-0.79378852 30.58705806 -6.80774235 31.56394881 -11.9375 29.05078125 C-15.67324927 26.09019996 -18.59837248 22.67255842 -19.31640625 17.89453125 C-19.60095191 12.41473263 -18.67785715 9.25857144 -15 5 C-10.26226535 -0.06827428 -6.65081999 -1.07657158 0 0 Z " fill="#2FC104" transform="translate(353,265)"/>
</svg>
